<?xml version="1.0" encoding="UTF-8" standalone="no"?>
<!-- Created with Inkscape (http://www.inkscape.org/) -->

<svg
   xmlns:dc="http://purl.org/dc/elements/1.1/"
   xmlns:cc="http://creativecommons.org/ns#"
   xmlns:rdf="http://www.w3.org/1999/02/22-rdf-syntax-ns#"
   xmlns:svg="http://www.w3.org/2000/svg"
   xmlns="http://www.w3.org/2000/svg"
   xmlns:sodipodi="http://sodipodi.sourceforge.net/DTD/sodipodi-0.dtd"
   xmlns:inkscape="http://www.inkscape.org/namespaces/inkscape"
   width="210mm"
   height="297mm"
   viewBox="0 0 210 297"
   version="1.1"
   id="svg7843"
   inkscape:version="0.92.1 r15371"
   sodipodi:docname="logo.svg">
  <defs
     id="defs7837" />
  <sodipodi:namedview
     id="base"
     pagecolor="#ffffff"
     bordercolor="#666666"
     borderopacity="1.0"
     inkscape:pageopacity="0.0"
     inkscape:pageshadow="2"
     inkscape:zoom="0.35"
     inkscape:cx="-425.71429"
     inkscape:cy="537.14286"
     inkscape:document-units="mm"
     inkscape:current-layer="layer1"
     showgrid="false"
     inkscape:window-width="3200"
     inkscape:window-height="1690"
     inkscape:window-x="0"
     inkscape:window-y="54"
     inkscape:window-maximized="1" />
  <metadata
     id="metadata7840">
    <rdf:RDF>
      <cc:Work
         rdf:about="">
        <dc:format>image/svg+xml</dc:format>
        <dc:type
           rdf:resource="http://purl.org/dc/dcmitype/StillImage" />
        <dc:title></dc:title>
      </cc:Work>
    </rdf:RDF>
  </metadata>
  <g
     inkscape:label="Layer 1"
     inkscape:groupmode="layer"
     id="layer1">
    <g
       id="g5832"
       transform="matrix(1.6876642,0,0,1.6876642,220.71554,-422.00644)"
       inkscape:export-xdpi="100"
       inkscape:export-ydpi="100">
      <g
         transform="translate(-174.62505,179.91672)"
         id="g5780"
         style="display:inline">
        <g
           id="g5778">
          <path
             style="opacity:1;fill:#b521ae;fill-opacity:1;stroke:none;stroke-width:2.64583325;stroke-miterlimit:4;stroke-dasharray:none;stroke-opacity:1"
             d="m 46.007192,93.189481 c 10.016367,-7.231944 20.032733,-14.463889 30.0491,-21.695833 10.016367,5.997222 20.032741,11.994444 30.049108,17.991666 10.01637,-5.997222 20.03274,-11.994444 30.04911,-17.991666 10.01637,7.231944 20.03273,14.463889 30.0491,21.695833 V 131.59187 L 106.1054,176.87341 46.007192,131.59187 Z"
             id="path5768"
             inkscape:connector-curvature="0"
             sodipodi:nodetypes="ccccccccc"
             clip-path="none" />
          <path
             clip-path="none"
             sodipodi:nodetypes="cccc"
             inkscape:connector-curvature="0"
             id="path5770"
             d="M 46.007192,93.189481 106.1054,176.87341 46.007192,131.59187 Z"
             style="opacity:1;fill:#9f1c97;fill-opacity:1;stroke:none;stroke-width:2.64583325;stroke-miterlimit:4;stroke-dasharray:none;stroke-opacity:1" />
          <path
             clip-path="none"
             sodipodi:nodetypes="cccc"
             inkscape:connector-curvature="0"
             id="path5772"
             d="M 166.20361,93.189481 V 131.59187 L 106.1054,176.87341 Z"
             style="opacity:1;fill:#d92ed1;fill-opacity:1;stroke:none;stroke-width:2.64583325;stroke-miterlimit:4;stroke-dasharray:none;stroke-opacity:1" />
          <path
             clip-path="none"
             sodipodi:nodetypes="cccc"
             inkscape:connector-curvature="0"
             id="path5774"
             d="M 106.1054,89.485314 136.15451,71.493648 106.1054,176.87341 Z"
             style="opacity:1;fill:#9f1c97;fill-opacity:1;stroke:none;stroke-width:2.64583325;stroke-miterlimit:4;stroke-dasharray:none;stroke-opacity:1" />
          <path
             clip-path="none"
             sodipodi:nodetypes="cccc"
             inkscape:connector-curvature="0"
             id="path5776"
             d="M 76.056292,71.493648 106.1054,89.485314 v 87.388096 z"
             style="opacity:1;fill:#d92ed1;fill-opacity:1;stroke:none;stroke-width:2.64583325;stroke-miterlimit:4;stroke-dasharray:none;stroke-opacity:1" />
        </g>
      </g>
      <g
         transform="translate(-174.62505,179.38755)"
         style="display:inline;fill:#ffffff"
         id="g5830">
        <g
           id="g5796"
           style="font-style:normal;font-variant:normal;font-weight:bold;font-stretch:normal;font-size:40px;line-height:33.70000076px;font-family:Cabin;-inkscape-font-specification:'Cabin Bold';letter-spacing:0px;word-spacing:0px;fill:#ffffff;fill-opacity:1;stroke:none;stroke-width:1px;stroke-linecap:butt;stroke-linejoin:miter;stroke-opacity:1"
           transform="matrix(0.43819909,0,0,0.43819909,-36.494583,-54.744758)"
           aria-label="ElTango  ">
          <path
             inkscape:connector-curvature="0"
             id="path5782"
             d="m 288.07969,391.50431 v -4.96 h -13.08 v -7.16 h 9.84 v -4.96 h -9.84 v -5.96 h 12.68 v -4.96 h -17.92 v 28 z" />
          <path
             inkscape:connector-curvature="0"
             id="path5784"
             d="m 299.09406,387.82431 c -1.96,0 -2.4,0 -2.4,-3.2 v -23.12 h -4.96 v 25.16 c 0,2.88 1.56,5.24 5.12,5.24 h 1.8 z" />
          <path
             inkscape:connector-curvature="0"
             id="path5786"
             d="m 320.73969,368.46431 v -4.96 h -20.96 v 4.96 h 7.92 v 23.04 h 5.12 v -23.04 z" />
          <path
             inkscape:connector-curvature="0"
             id="path5788"
             d="m 338.73781,387.82431 h -0.64 c -1.44,0 -1.76,-0.2 -1.76,-3.2 v -5.4 c 0,-5.8 -2.76,-8.04 -7.24,-8.04 -2.48,0 -4.88,0.6 -7.28,1.76 l 0.44,4.04 c 2.12,-1.04 3.68,-1.52 5.48,-1.52 2.56,0 3.48,1 3.6,3.28 -3.76,0.12 -11.24,1.52 -11.24,7.16 0,3.8 2.6,6 5.8,6 2.4,0 4.8,-0.84 6.12,-2.32 0.76,1.4 2.24,2.32 4.48,2.32 h 1.8 z m -7.36,-1.16 c -1.04,1 -2.52,1.44 -3.4,1.44 -1.88,0 -2.68,-0.76 -2.68,-2.4 0,-2.36 3.28,-3.48 6.08,-3.6 z" />
          <path
             inkscape:connector-curvature="0"
             id="path5790"
             d="m 359.13969,391.50431 v -10.76 c 0,-5.64 -2.28,-9.56 -8.52,-9.56 -1.56,0 -3.24,0.68 -4.4,1.52 l -0.08,-1.2 h -4.64 v 20 h 4.96 v -14.52 c 0.92,-1.08 2.08,-1.72 3.76,-1.72 2.8,0 3.96,1.76 3.96,5.48 v 10.76 z" />
          <path
             inkscape:connector-curvature="0"
             id="path5792"
             d="m 371.68906,401.50431 c 6.16,0 9.56,-2.56 9.56,-6.44 0,-4.84 -5.2,-5.68 -8.04,-6.04 -3.28,-0.4 -5,-0.68 -5,-1.64 0,-0.28 0.16,-0.52 0.44,-0.64 0.68,0.12 1.36,0.2 2.12,0.2 5.24,0 8.08,-3.6 8.08,-7.88 0,-1.6 -0.4,-3.16 -1.2,-4.4 0.44,-0.04 0.88,-0.04 1.12,-0.04 h 1.8 l 0.32,-3.12 h -1.28 c -1.88,0 -3.48,0.44 -4.28,0.88 -1.2,-0.76 -2.76,-1.2 -4.56,-1.2 -5.24,0 -8.12,3.6 -8.12,7.88 0,2.64 1.08,5 3.08,6.44 -1.32,0.64 -2,1.48 -2,2.72 0,1.32 0.72,2.2 1.8,2.88 -2.12,1.12 -3.28,2.56 -3.28,4.48 0,2.96 2.8,5.92 9.44,5.92 z m -0.92,-26.68 c 2.4,0 3.64,1.68 3.64,4.24 0,2.56 -1.24,4.24 -3.64,4.24 -2.44,0 -3.68,-1.68 -3.68,-4.24 0,-2.56 1.24,-4.24 3.68,-4.24 z m 0.76,17.88 c 2.52,0.28 5.32,0.64 5.32,2.56 0,1.72 -2.32,2.72 -5.4,2.72 -3.24,0 -5.08,-1.12 -5.08,-2.88 0,-1.52 1.32,-2.28 2.76,-2.76 0.88,0.16 1.68,0.28 2.4,0.36 z" />
          <path
             inkscape:connector-curvature="0"
             id="path5794"
             d="m 392.45094,391.90431 c 6.4,0 10.12,-4.76 10.12,-10.36 0,-5.6 -3.72,-10.36 -10.12,-10.36 -6.4,0 -10.12,4.76 -10.12,10.36 0,5.6 3.72,10.36 10.12,10.36 z m 0,-16.64 c 3.2,0 5.04,2.56 5.04,6.28 0,3.72 -1.84,6.28 -5.04,6.28 -3.2,0 -5.04,-2.56 -5.04,-6.28 0,-3.72 1.84,-6.28 5.04,-6.28 z" />
        </g>
        <g
           id="g5814"
           style="font-style:normal;font-variant:normal;font-weight:bold;font-stretch:normal;font-size:40px;line-height:33.70000076px;font-family:Cabin;-inkscape-font-specification:'Cabin Bold';letter-spacing:0px;word-spacing:0px;fill:#ffffff;fill-opacity:1;stroke:none;stroke-width:1px;stroke-linecap:butt;stroke-linejoin:miter;stroke-opacity:1"
           transform="matrix(0.43123632,0,0,0.43123632,-52.572895,-54.933394)"
           aria-label="     Clausura">
          <path
             inkscape:connector-curvature="0"
             id="path5798"
             d="m 308.83281,459.46434 c 2.92,0 5.92,-0.64 7.96,-1.64 l -0.56,-4.88 c -2.32,0.92 -4.48,1.6 -7.4,1.6 -5.44,0 -8.2,-4.04 -8.2,-9.64 0,-5.6 2.76,-9.64 8.2,-9.64 2.92,0 5.08,0.68 7.4,1.6 l 0.56,-4.88 c -2.04,-1 -5.04,-1.64 -7.96,-1.64 -8,0 -13.8,5.76 -13.8,14.56 0,8.8 5.8,14.56 13.8,14.56 z" />
          <path
             inkscape:connector-curvature="0"
             id="path5800"
             d="m 327.68781,455.22434 c -1.96,0 -2.4,0 -2.4,-3.2 v -23.12 h -4.96 v 25.16 c 0,2.88 1.56,5.24 5.12,5.24 h 1.8 z" />
          <path
             inkscape:connector-curvature="0"
             id="path5802"
             d="m 348.03469,455.22434 h -0.64 c -1.44,0 -1.76,-0.2 -1.76,-3.2 v -5.4 c 0,-5.8 -2.76,-8.04 -7.24,-8.04 -2.48,0 -4.88,0.6 -7.28,1.76 l 0.44,4.04 c 2.12,-1.04 3.68,-1.52 5.48,-1.52 2.56,0 3.48,1 3.6,3.28 -3.76,0.12 -11.24,1.52 -11.24,7.16 0,3.8 2.6,6 5.8,6 2.4,0 4.8,-0.84 6.12,-2.32 0.76,1.4 2.24,2.32 4.48,2.32 h 1.8 z m -7.36,-1.16 c -1.04,1 -2.52,1.44 -3.4,1.44 -1.88,0 -2.68,-0.76 -2.68,-2.4 0,-2.36 3.28,-3.48 6.08,-3.6 z" />
          <path
             inkscape:connector-curvature="0"
             id="path5804"
             d="m 368.08031,458.90434 v -20 h -4.96 v 14.56 c -0.92,1.08 -2.12,1.68 -3.76,1.68 -2.8,0 -3.96,-1.76 -3.96,-5.48 v -10.76 h -4.96 v 10.76 c 0,5.64 2.24,9.64 8.48,9.64 1.56,0 3.28,-0.72 4.44,-1.6 l 0.08,1.2 z" />
          <path
             inkscape:connector-curvature="0"
             id="path5806"
             d="m 378.42969,459.30434 c 6.84,0 7.84,-3.44 7.84,-5.88 0,-4.12 -2.8,-5.36 -5.48,-6.12 -2.52,-0.72 -4.56,-1.04 -4.56,-2.96 0,-1.6 1.6,-2.2 3.32,-2.2 2.16,0 4.48,1.16 5.48,2.16 l 0.44,-4.24 c -1.08,-0.72 -3.68,-1.48 -6.28,-1.48 -5.64,0 -7.32,3.56 -7.32,6.36 0,3.84 2.96,4.76 5.76,5.6 1.96,0.6 3.68,1.16 3.68,2.84 0,1 -0.64,2.2 -3.04,2.2 -2.24,0 -4.92,-1.04 -6.16,-2 l -0.44,4.24 c 1.16,0.76 3.64,1.48 6.76,1.48 z" />
          <path
             inkscape:connector-curvature="0"
             id="path5808"
             d="m 407.14281,458.90434 v -20 h -4.96 v 14.56 c -0.92,1.08 -2.12,1.68 -3.76,1.68 -2.8,0 -3.96,-1.76 -3.96,-5.48 v -10.76 h -4.96 v 10.76 c 0,5.64 2.24,9.64 8.48,9.64 1.56,0 3.28,-0.72 4.44,-1.6 l 0.08,1.2 z" />
          <path
             inkscape:connector-curvature="0"
             id="path5810"
             d="m 423.21219,438.58434 h -1.32 c -2.28,0 -4.28,1.36 -5.32,2.44 l -0.12,-2.12 h -4.64 v 20 h 4.96 v -13.64 c 0.56,-1.12 2,-2 3.64,-2 h 1.84 z" />
          <path
             inkscape:connector-curvature="0"
             id="path5812"
             d="m 442.40969,455.22434 h -0.64 c -1.44,0 -1.76,-0.2 -1.76,-3.2 v -5.4 c 0,-5.8 -2.76,-8.04 -7.24,-8.04 -2.48,0 -4.88,0.6 -7.28,1.76 l 0.44,4.04 c 2.12,-1.04 3.68,-1.52 5.48,-1.52 2.56,0 3.48,1 3.6,3.28 -3.76,0.12 -11.24,1.52 -11.24,7.16 0,3.8 2.6,6 5.8,6 2.4,0 4.8,-0.84 6.12,-2.32 0.76,1.4 2.24,2.32 4.48,2.32 h 1.8 z m -7.36,-1.16 c -1.04,1 -2.52,1.44 -3.4,1.44 -1.88,0 -2.68,-0.76 -2.68,-2.4 0,-2.36 3.28,-3.48 6.08,-3.6 z" />
        </g>
        <g
           id="g5824"
           style="font-style:normal;font-variant:normal;font-weight:bold;font-stretch:normal;font-size:40px;line-height:33.70000076px;font-family:Cabin;-inkscape-font-specification:'Cabin Bold';letter-spacing:0px;word-spacing:0px;fill:#ffffff;fill-opacity:1;stroke:none;stroke-width:1px;stroke-linecap:butt;stroke-linejoin:miter;stroke-opacity:1"
           transform="matrix(0.43819909,0,0,0.43819909,-38.993042,-54.744758)"
           aria-label="    NoSe ">
          <path
             inkscape:connector-curvature="0"
             id="path5816"
             d="m 318.83281,425.20433 v -28 h -5.12 v 18.08 l -11.96,-18.08 h -5.04 v 28 h 5.12 v -19.2 l 12.8,19.2 z" />
          <path
             inkscape:connector-curvature="0"
             id="path5818"
             d="m 332.60719,425.60433 c 6.4,0 10.12,-4.76 10.12,-10.36 0,-5.6 -3.72,-10.36 -10.12,-10.36 -6.4,0 -10.12,4.76 -10.12,10.36 0,5.6 3.72,10.36 10.12,10.36 z m 0,-16.64 c 3.2,0 5.04,2.56 5.04,6.28 0,3.72 -1.84,6.28 -5.04,6.28 -3.2,0 -5.04,-2.56 -5.04,-6.28 0,-3.72 1.84,-6.28 5.04,-6.28 z" />
          <path
             inkscape:connector-curvature="0"
             id="path5820"
             d="m 354.44219,425.76433 c 9.44,0 10.84,-4.96 10.84,-8.16 0,-6.16 -5.32,-7.76 -9.68,-9.08 -3.04,-0.92 -5.64,-1.8 -5.64,-4.04 0,-2.4 2.96,-2.96 5.12,-2.96 2.68,0 5.2,0.88 8.2,2.52 l 0.52,-5.24 c -1.44,-0.96 -5.08,-2.16 -8.92,-2.16 -7.56,0 -10.12,4.68 -10.12,8.4 0,5 4.32,6.4 8.28,7.76 3.4,1.16 6.52,2.16 6.52,5 0,2.28 -2,3.04 -5,3.04 -4.2,0 -7.28,-1.48 -8.8,-2.96 l -0.6,5.84 c 1.6,1.04 5.04,2.04 9.28,2.04 z" />
          <path
             inkscape:connector-curvature="0"
             id="path5822"
             d="m 385.64531,416.28433 c 0.2,-0.96 0.32,-1.84 0.32,-2.72 0,-5.28 -3.76,-8.68 -8.8,-8.68 -6.16,0 -9.6,4.8 -9.6,10.36 0,5.6 3.6,10.36 10.84,10.36 2.84,0 5.16,-0.72 6.68,-1.52 l -0.24,-4.2 c -1.64,0.88 -4.28,1.64 -6.16,1.64 -2.64,0 -5.4,-1.52 -5.96,-5.24 z m -8.32,-7.32 c 2.68,0 3.6,2.16 3.6,3.96 h -8.08 c 0.48,-2.28 1.92,-3.96 4.48,-3.96 z" />
        </g>
        <g
           id="g5828"
           style="font-style:normal;font-variant:normal;font-weight:bold;font-stretch:normal;font-size:40px;line-height:33.70000076px;font-family:Cabin;-inkscape-font-specification:'Cabin Bold';letter-spacing:0px;word-spacing:0px;fill:#ffffff;fill-opacity:1;stroke:none;stroke-width:1px;stroke-linecap:butt;stroke-linejoin:miter;stroke-opacity:1"
           transform="matrix(0.52337483,0,0,0.52337483,-71.615476,-87.0388)"
           aria-label="#  ">
          <path
             inkscape:connector-curvature="0"
             id="path5826"
             style="font-style:normal;font-variant:normal;font-weight:bold;font-stretch:normal;font-family:'Liberation Sans';-inkscape-font-specification:'Liberation Sans Bold'"
             d="m 284.43359,374.66838 -1.34765,6.48437 h 4.19922 v 2.91016 h -4.80469 l -1.60156,7.4414 h -3.04688 l 1.5625,-7.4414 h -5.99609 l -1.5625,7.4414 h -2.98828 l 1.54296,-7.4414 h -3.02734 v -2.91016 h 3.67188 l 1.36718,-6.48437 h -4.04297 v -2.89063 h 4.64844 l 1.64063,-7.51953 h 2.98828 l -1.60156,7.51953 h 5.99609 l 1.64062,-7.51953 h 3.04688 l -1.64063,7.51953 h 3.20313 v 2.89063 z m -8.98437,0 -1.40625,6.48437 h 6.03515 l 1.36719,-6.48437 z" />
        </g>
      </g>
    </g>
  </g>
</svg>
